<svg xmlns="http://www.w3.org/2000/svg" xmlns:xlink="http://www.w3.org/1999/xlink" width="640" zoomAndPan="magnify" viewBox="0 0 480 479.999983" height="640" preserveAspectRatio="xMidYMid meet" version="1.0"><path stroke-linecap="round" transform="matrix(0.24904, 0, 0, 0.24904, 45.386758, 45.386749)" fill-opacity="1" fill="#13979d" fill-rule="evenodd" stroke-linejoin="round" d="M 126.846157 759.132792 C 142.515684 794.110815 153.714926 821.010955 170.984345 830.610305 C 189.900711 841.119397 214.761773 831.096547 219.279114 828.539857 C 233.756565 820.383546 238.681722 800.620179 271.934372 734.020766 C 290.866424 696.093923 330.863716 603.488428 342.533514 593.026391 C 351.12901 585.324952 367.253409 588.697273 372.460899 596.492823 C 345.576445 541.312246 348.50958 539.210427 336.918208 529.140521 C 331.130364 524.105568 292.482001 498.491616 262.836949 544.025787 C 253.974804 557.656237 258.037274 559.711 175.219352 727.401607 C 173.870424 730.099463 160.067437 758.050512 156.820598 760.309183 C 143.456797 769.594828 142.013757 765.108858 127.45788 758.003456 C 126.469712 757.517215 126.406971 758.160308 126.830471 759.132792 Z M 126.846157 759.132792 " stroke="#06908f" stroke-width="1" stroke-opacity="1" stroke-miterlimit="1.5"/><path stroke-linecap="round" transform="matrix(0.24904, 0, 0, 0.24904, 45.386758, 45.386749)" fill-opacity="1" fill="#13979d" fill-rule="evenodd" stroke-linejoin="round" d="M 311.053292 760.105275 C 310.614106 759.148477 310.676847 758.489698 311.680701 758.975939 C 326.236578 766.097026 327.663932 770.582997 341.027733 761.297351 C 344.290257 759.03868 358.093244 731.087632 359.426487 728.389775 C 442.244409 560.699168 438.181939 558.644406 447.05977 545.013956 C 476.689136 499.479784 515.3375 525.093736 521.125343 530.113004 C 532.7324 540.198596 529.78358 542.300414 556.668035 597.480992 C 551.460544 589.685441 535.336146 586.31312 526.740649 594.01456 C 515.070851 604.476596 475.089244 697.066406 456.141508 734.99325 C 422.888857 801.608347 417.963701 821.371715 403.501935 829.528025 C 398.968908 832.084715 374.107846 842.107566 355.19148 831.598473 C 337.937746 821.999123 326.722819 795.083299 311.053292 760.105275 Z M 311.053292 760.105275 " stroke="#06908f" stroke-width="1" stroke-opacity="1" stroke-miterlimit="1.5"/><path stroke-linecap="round" transform="matrix(0.24904, 0, 0, 0.24904, 45.386758, 45.386749)" fill-opacity="1" fill="#13979d" fill-rule="evenodd" stroke-linejoin="round" d="M 44.090976 575.898139 C 52.294342 565.138083 56.560719 524.183994 93.891525 520.168579 C 97.953995 519.729393 101.624335 519.619597 104.9496 519.776449 C 127.45788 520.827358 133.71628 533.783344 136.178858 535.085216 C 139.629605 536.920386 146.672265 550.958651 157.416636 574.564896 C 157.996989 575.819713 171.925457 600.163163 168.44334 596.979065 C 157.291154 586.767992 143.237204 590.406961 140.476606 592.367612 C 126.987324 601.904222 111.490334 650.434269 105.561323 653.571312 C 85.672474 664.096089 77.249515 654.982981 75.618253 653.226237 C 63.619065 640.270251 66.536515 639.721269 43.777271 591.112795 C 43.196918 590.469702 43.259659 590.187368 42.977325 589.308996 C 42.616566 588.11692 42.051898 586.234694 42.302861 584.697543 C 42.318547 584.556377 42.20875 581.780094 42.663621 579.364571 C 42.977325 577.733309 44.090976 575.898139 44.090976 575.898139 Z M 44.090976 575.898139 " stroke="#06908f" stroke-width="1" stroke-opacity="1" stroke-miterlimit="1.5"/><path stroke-linecap="round" transform="matrix(0.24904, 0, 0, 0.24904, 45.386758, 45.386749)" fill="none" stroke-linejoin="round" d="M 60.952579 626.294727 L 136.900378 777.029619 " stroke="#13979d" stroke-width="3.54" stroke-opacity="1" stroke-miterlimit="1.5"/><path stroke-linecap="round" transform="matrix(0.24904, 0, 0, 0.24904, 45.386758, 45.386749)" fill="none" stroke-linejoin="round" d="M 257.974533 652.394921 L 333.922332 803.129813 " stroke="#13979d" stroke-width="3.54" stroke-opacity="1" stroke-miterlimit="1.5"/><path stroke-linecap="round" transform="matrix(0.24904, 0, 0, 0.24904, 45.386758, 45.386749)" fill-opacity="1" fill="#13979d" fill-rule="evenodd" stroke-linejoin="round" d="M 760.889501 593.889078 C 761.313002 594.845876 761.265946 595.504655 760.262093 595.018413 C 745.65916 587.881642 744.21612 583.379986 730.805264 592.697002 C 727.54274 594.955672 713.677012 623.016518 712.343769 625.730059 C 629.212142 794.016704 633.290298 796.071467 624.381097 809.748972 C 594.641934 855.439996 555.852404 829.747618 550.048875 824.69698 C 538.394762 814.580018 541.343582 812.462514 514.380702 757.093714 C 519.603877 764.920635 535.775332 768.292956 544.417884 760.560146 C 556.119052 750.066739 596.257511 657.14754 615.267988 619.079529 C 648.646121 552.244839 653.602648 532.403045 668.111469 524.215364 C 672.660181 521.658674 697.599669 511.588768 716.594461 522.144916 C 733.910936 531.775637 745.157233 558.785572 760.889501 593.889078 Z M 760.889501 593.889078 " stroke="#06908f" stroke-width="1" stroke-opacity="1" stroke-miterlimit="1.5"/><path stroke-linecap="round" transform="matrix(0.24904, 0, 0, 0.24904, 45.386758, 45.386749)" fill-opacity="1" fill="#13979d" fill-rule="evenodd" stroke-linejoin="round" d="M 842.797681 777.406064 C 834.547259 788.213176 830.249511 829.292747 792.777538 833.308161 C 788.699383 833.747347 785.013358 833.857144 781.688093 833.700292 C 759.101387 832.633697 752.827302 819.630656 750.364724 818.313098 C 746.898292 816.462243 739.839946 802.376922 729.064205 778.676566 C 728.483852 777.421749 714.524013 752.984188 718.00613 756.183972 C 729.205372 766.426415 743.306378 762.787446 746.082661 760.826795 C 759.618999 751.258815 775.2101 702.571915 781.170481 699.419188 C 801.122071 688.878725 809.576401 698.023204 811.207663 699.779948 C 823.238221 712.782989 820.320771 713.347656 843.12707 762.144352 C 843.707423 762.787446 843.644682 763.06978 843.927016 763.963837 C 844.287776 765.140228 844.852444 767.038139 844.60148 768.57529 C 844.57011 768.716456 844.679906 771.508424 844.225035 773.939632 C 843.911331 775.570894 842.797681 777.406064 842.797681 777.406064 Z M 842.797681 777.406064 " stroke="#06908f" stroke-width="1" stroke-opacity="1" stroke-miterlimit="1.5"/><path stroke-linecap="round" transform="matrix(0.24904, 0, 0, 0.24904, 45.386758, 45.386749)" fill="none" stroke-linejoin="round" d="M 753.078265 582.438873 L 828.445711 731.966004 " stroke="#13979d" stroke-width="3.54" stroke-opacity="1" stroke-miterlimit="1.5"/><path stroke-linecap="round" transform="matrix(0.24904, 0, 0, 0.24904, 45.386758, 45.386749)" fill-opacity="1" fill="#13979d" fill-rule="evenodd" stroke-linejoin="round" d="M 1068.225555 759.524922 C 1068.649056 758.583809 1068.586315 757.92503 1067.598146 758.411272 C 1053.13638 765.469617 1051.709026 769.908533 1038.439336 760.701313 C 1035.208183 758.442642 1021.514992 730.679816 1020.197434 727.98196 C 938.038291 561.373632 942.085076 559.334555 933.285672 545.798216 C 903.875898 500.562064 865.478498 525.956423 859.722025 530.94432 C 848.193394 540.951486 851.110844 543.037619 824.383241 597.826066 C 829.559362 590.093257 845.573964 586.752306 854.106719 594.422375 C 865.682406 604.805986 905.334623 696.815442 924.125508 734.491323 C 957.11151 800.667234 961.989611 820.30512 976.357265 828.414375 C 980.843236 830.95538 1005.531761 840.931175 1024.322645 830.500508 C 1041.482268 820.979584 1052.634454 794.267668 1068.225555 759.524922 Z M 1068.225555 759.524922 " stroke="#06908f" stroke-width="1" stroke-opacity="1" stroke-miterlimit="1.5"/><path stroke-linecap="round" transform="matrix(0.24904, 0, 0, 0.24904, 45.386758, 45.386749)" fill-opacity="1" fill="#13979d" fill-rule="evenodd" stroke-linejoin="round" d="M 1152.125757 573.231653 C 1143.969446 562.534338 1139.734439 521.878267 1102.654596 517.878538 C 1098.623497 517.439352 1094.984527 517.329556 1091.674948 517.486408 C 1069.32352 518.521632 1063.112176 531.383506 1060.665282 532.685379 C 1057.230221 534.504863 1050.234616 548.449017 1039.568672 571.89841 C 1038.988319 573.153227 1025.153961 597.308454 1028.604708 594.155727 C 1039.694153 584.023079 1053.638307 587.646363 1056.383219 589.575645 C 1069.778391 599.065198 1085.18127 647.250171 1091.063224 650.371528 C 1110.810907 660.81788 1119.18681 651.783197 1120.802387 650.042139 C 1132.723149 637.180264 1129.821384 636.631282 1152.439461 588.336513 C 1153.004128 587.709104 1152.957073 587.42677 1153.223721 586.548399 C 1153.584481 585.372008 1154.149149 583.505467 1153.898186 581.968316 C 1153.866815 581.842835 1153.976612 579.082237 1153.537426 576.6824 C 1153.223721 575.051138 1152.125757 573.231653 1152.125757 573.231653 Z M 1152.125757 573.231653 " stroke="#06908f" stroke-width="1" stroke-opacity="1" stroke-miterlimit="1.5"/><path stroke-linecap="round" transform="matrix(0.24904, 0, 0, 0.24904, 45.386758, 45.386749)" fill="none" stroke-linejoin="round" d="M 1061.59071 770.002644 L 1136.048414 621.965608 " stroke="#13979d" stroke-width="3.54" stroke-opacity="1" stroke-miterlimit="1.5"/><path stroke-linecap="round" transform="matrix(0.24904, 0, 0, 0.24904, 45.386758, 45.386749)" fill-opacity="1" fill="#13979d" fill-rule="evenodd" stroke-linejoin="round" d="M 1430.208889 759.713144 C 1430.648075 758.756347 1430.585334 758.097568 1429.597166 758.583809 C 1415.041288 765.673525 1413.613934 770.159496 1400.281503 760.87385 C 1397.018979 758.61518 1383.247363 730.695501 1381.91412 727.98196 C 1299.315791 560.43252 1303.378261 558.393442 1294.516116 544.778678 C 1264.94949 499.275876 1226.332497 524.827087 1220.544653 529.846355 C 1208.953281 539.900577 1211.886416 542.002395 1185.001962 597.104547 C 1190.209452 589.308996 1206.318166 585.95236 1214.897977 593.669485 C 1226.536405 604.115837 1266.4239 696.62722 1285.308896 734.522693 C 1318.48312 801.07505 1323.392592 820.822732 1337.838672 828.979043 C 1342.356014 831.535732 1367.17002 841.574268 1386.070701 831.080861 C 1403.324435 821.497196 1414.539362 794.628427 1430.208889 759.713144 Z M 1430.208889 759.713144 " stroke="#06908f" stroke-width="1" stroke-opacity="1" stroke-miterlimit="1.5"/><path stroke-linecap="round" transform="matrix(0.24904, 0, 0, 0.24904, 45.386758, 45.386749)" fill-opacity="1" fill="#13979d" fill-rule="evenodd" stroke-linejoin="round" d="M 1513.403256 573.545357 C 1505.215575 562.800987 1500.949197 521.893953 1463.665447 517.878538 C 1459.602977 517.439352 1455.932637 517.329556 1452.623057 517.486408 C 1430.146148 518.537317 1423.887748 531.461932 1421.440855 532.77949 C 1417.990108 534.598975 1410.947448 548.621555 1400.218763 572.196429 C 1399.63841 573.451246 1385.725626 597.763325 1389.192058 594.579227 C 1400.344244 584.383839 1414.366824 588.038494 1417.127422 589.98346 C 1430.601019 599.520069 1446.082324 647.987376 1452.011334 651.124418 C 1471.853128 661.633511 1480.276087 652.536087 1481.907349 650.779344 C 1493.890852 637.854729 1490.989087 637.290061 1513.71696 588.744328 C 1514.297313 588.101235 1514.234572 587.818901 1514.516906 586.940529 C 1514.877666 585.748453 1515.442334 583.881912 1515.19137 582.329076 C 1515.175685 582.203595 1515.269796 579.427312 1514.83061 577.011789 C 1514.516906 575.380527 1513.403256 573.545357 1513.403256 573.545357 Z M 1513.403256 573.545357 " stroke="#06908f" stroke-width="1" stroke-opacity="1" stroke-miterlimit="1.5"/><path stroke-linecap="round" transform="matrix(0.24904, 0, 0, 0.24904, 45.386758, 45.386749)" fill-opacity="1" fill="#13979d" fill-rule="evenodd" stroke-linejoin="round" d="M 1209.361097 973.847665 C 1217.799741 984.419499 1222.944491 1025.216736 1260.306667 1028.432205 C 1264.369137 1028.77728 1268.039477 1028.80865 1271.349057 1028.573372 C 1293.810281 1027.051906 1299.770662 1013.986124 1302.20187 1012.621511 C 1305.605561 1010.7236 1312.334517 996.544168 1322.561275 972.749701 C 1323.110258 971.479198 1336.505429 946.8691 1333.101738 950.131624 C 1322.169145 960.56229 1308.068139 957.22134 1305.260486 955.323429 C 1291.582981 946.084839 1275.066452 897.978293 1269.074701 894.966732 C 1248.997629 884.896825 1240.762892 894.166786 1239.178686 895.9549 C 1227.477517 909.146164 1230.410652 909.632405 1208.718003 958.680065 C 1208.153336 959.323159 1208.231762 959.605492 1207.965113 960.483864 C 1207.635724 961.675941 1207.102426 963.573851 1207.38476 965.111002 C 1207.416131 965.236484 1207.369075 968.028452 1207.871002 970.428289 C 1208.216076 972.043866 1209.361097 973.847665 1209.361097 973.847665 Z M 1209.361097 973.847665 " stroke="#06908f" stroke-width="1" stroke-opacity="1" stroke-miterlimit="1.5"/><path stroke-linecap="round" transform="matrix(0.24904, 0, 0, 0.24904, 45.386758, 45.386749)" fill="none" stroke-linejoin="round" d="M 1331.768495 952.813795 L 1492.510553 633.227591 " stroke="#13979d" stroke-width="3.54" stroke-opacity="1" stroke-miterlimit="1.5"/></svg>